<svg id="facebook-circle-line" xmlns="http://www.w3.org/2000/svg" width="32" height="32" viewBox="0 0 32 32">
  <path id="Path_6" data-name="Path 6" d="M0,0H32V32H0Z" fill="none"/>
  <path id="Path_7" data-name="Path 7" d="M17.4,27.113a11.208,11.208,0,1,0-2.8,0V18.8H11.8V16h2.8V13.684a6.114,6.114,0,0,1,.56-3.235A3.816,3.816,0,0,1,16.75,8.86a5.548,5.548,0,0,1,2.362-.533,9.04,9.04,0,0,1,1.789.112V11.1h-.7a5.077,5.077,0,0,0-2.131.23,1.018,1.018,0,0,0-.44.44c-.168.316-.23.63-.23,1.915V16h3.5l-.7,2.8H17.4ZM16,30A14,14,0,1,1,30,16,14,14,0,0,1,16,30Z"/>
</svg>
