<svg id="gift-2-fill_1_" data-name="gift-2-fill (1)" xmlns="http://www.w3.org/2000/svg" width="60" height="60" viewBox="0 0 60 60">
  <path id="Path_23" data-name="Path 23" d="M0,0H60V60H0Z" fill="none"/>
  <path id="Path_24" data-name="Path 24" d="M52.4,33.845V54.106A2.848,2.848,0,0,1,49.6,57H10.4a2.848,2.848,0,0,1-2.8-2.894V33.845ZM37,2.007a9.729,9.729,0,0,1,8.286,4.715,10.427,10.427,0,0,1,.571,9.759l9.344,0A2.848,2.848,0,0,1,58,19.373v8.683a2.848,2.848,0,0,1-2.8,2.894H4.8A2.848,2.848,0,0,1,2,28.056V19.373a2.848,2.848,0,0,1,2.8-2.894l9.344,0A10.336,10.336,0,0,1,17.386,3.818,9.565,9.565,0,0,1,30,5.049a9.59,9.59,0,0,1,7-3.042ZM23,7.8a4.264,4.264,0,0,0-4.193,4.133,4.3,4.3,0,0,0,3.79,4.53l.4.02h4.2V12.137a4.29,4.29,0,0,0-3.8-4.321Zm14,0-.4.02a4.273,4.273,0,0,0-3.78,3.9l-.017.417v4.342H37l.4-.02a4.358,4.358,0,0,0,0-8.643Z" transform="translate(0 0)"/>
</svg>
