<svg id="instagram-line" xmlns="http://www.w3.org/2000/svg" width="32" height="32" viewBox="0 0 32 32">
  <path id="Path_8" data-name="Path 8" d="M0,0H32V32H0Z" fill="none"/>
  <path id="Path_9" data-name="Path 9" d="M16,11.8A4.2,4.2,0,1,0,20.2,16,4.2,4.2,0,0,0,16,11.8ZM16,9a7,7,0,1,1-7,7A7,7,0,0,1,16,9Zm9.1-.35A1.75,1.75,0,1,1,23.35,6.9,1.75,1.75,0,0,1,25.1,8.65ZM16,4.8c-3.464,0-4.029.01-5.641.081a7.606,7.606,0,0,0-2.517.465A4.041,4.041,0,0,0,6.33,6.33a4.046,4.046,0,0,0-.986,1.512,7.6,7.6,0,0,0-.463,2.517C4.808,11.905,4.8,12.445,4.8,16c0,3.464.01,4.029.081,5.641a7.636,7.636,0,0,0,.463,2.516,4.353,4.353,0,0,0,2.495,2.5,7.621,7.621,0,0,0,2.52.466c1.546.073,2.086.081,5.641.081,3.464,0,4.029-.01,5.641-.081a7.651,7.651,0,0,0,2.516-.463,4.089,4.089,0,0,0,1.512-.983,4.048,4.048,0,0,0,.986-1.512,7.654,7.654,0,0,0,.465-2.52c.073-1.546.081-2.086.081-5.641,0-3.464-.01-4.029-.081-5.641a7.62,7.62,0,0,0-.465-2.517A4.075,4.075,0,0,0,25.67,6.33a4.038,4.038,0,0,0-1.512-.986,7.6,7.6,0,0,0-2.517-.463C20.1,4.808,19.555,4.8,16,4.8ZM16,2c3.8,0,4.278.014,5.771.084a10.314,10.314,0,0,1,3.4.651,6.826,6.826,0,0,1,2.481,1.614A6.871,6.871,0,0,1,29.265,6.83a10.342,10.342,0,0,1,.651,3.4C29.982,11.722,30,12.2,30,16s-.014,4.278-.084,5.771a10.35,10.35,0,0,1-.651,3.4,7.148,7.148,0,0,1-4.095,4.095,10.342,10.342,0,0,1-3.4.651C20.278,29.982,19.8,30,16,30s-4.278-.014-5.771-.084a10.35,10.35,0,0,1-3.4-.651A7.148,7.148,0,0,1,2.735,25.17a10.306,10.306,0,0,1-.651-3.4C2.018,20.278,2,19.8,2,16s.014-4.278.084-5.771a10.306,10.306,0,0,1,.651-3.4A6.832,6.832,0,0,1,4.349,4.349,6.856,6.856,0,0,1,6.83,2.735a10.306,10.306,0,0,1,3.4-.651C11.722,2.018,12.2,2,16,2Z"/>
</svg>
