<svg id="lock-2-fill" xmlns="http://www.w3.org/2000/svg" width="60" height="60" viewBox="0 0 60 60">
  <path id="Path_19" data-name="Path 19" d="M0,0H60V60H0Z" fill="none"/>
  <path id="Path_20" data-name="Path 20" d="M48,20h6a2.868,2.868,0,0,1,3,2.714V55.286A2.868,2.868,0,0,1,54,58H6a2.868,2.868,0,0,1-3-2.714V22.714A2.868,2.868,0,0,1,6,20h6V17.286C12,8.291,20.059,1,30,1S48,8.291,48,17.286ZM27,40.987v6.156h6V40.987a5.228,5.228,0,0,0,2.8-6.106A5.933,5.933,0,0,0,30,30.857a5.933,5.933,0,0,0-5.8,4.024A5.228,5.228,0,0,0,27,40.987ZM42,20V17.286c0-6-5.373-10.857-12-10.857S18,11.289,18,17.286V20Z" transform="translate(0 0)"/>
</svg>
