<svg xmlns="http://www.w3.org/2000/svg" width="60" height="48" viewBox="0 0 60 48">
  <path id="Icon_awesome-truck-loading" data-name="Icon awesome-truck-loading" d="M4.706,35.212a1.5,1.5,0,0,0,1.837,1.059l20.287-5.438A1.5,1.5,0,0,0,27.891,29L23.231,11.606a1.5,1.5,0,0,0-1.837-1.059L14.156,12.5l2.325,8.691-5.794,1.547L8.363,14.044,1.116,15.984A1.5,1.5,0,0,0,.056,17.822ZM36,0a3,3,0,0,0-3,3V33.337L.553,42.187a.746.746,0,0,0-.525.919l1.181,4.341a.746.746,0,0,0,.919.525L39.037,37.9A10.485,10.485,0,0,0,60,37.5V0ZM49.5,42A4.5,4.5,0,1,1,54,37.5,4.5,4.5,0,0,1,49.5,42Z" transform="translate(0)"/>
</svg>
