<svg id="twitter-line" xmlns="http://www.w3.org/2000/svg" width="32" height="32" viewBox="0 0 32 32">
  <path id="Path_4" data-name="Path 4" d="M0,0H32V32H0Z" fill="none"/>
  <path id="Path_5" data-name="Path 5" d="M20.846,6.512a4.175,4.175,0,0,0-4.057,4.216l-.039,2.331a.91.91,0,0,1-.293.657.808.808,0,0,1-.658.206l-2.184-.314A16,16,0,0,1,5.348,9.464c-.836,4.9.8,8.3,4.732,10.915L12.524,22a.918.918,0,0,1,.048,1.47L10.345,25.2A13.707,13.707,0,0,0,13.97,25c6.6-1.395,10.988-6.651,10.988-15.321a4.287,4.287,0,0,0-4.113-3.17Zm-6.854,4.16a7.256,7.256,0,0,1,4.307-6.6A6.584,6.584,0,0,1,25.721,5.7a5.156,5.156,0,0,0,3.733-.955c-.469,2.428-.7,3.482-1.7,4.932,0,11.314-6.57,16.816-13.237,18.224-4.571.965-11.219-.62-13.124-2.726.971-.08,4.915-.529,7.2-2.295C6.662,21.54-1.017,16.757,4.029,3.9a19.837,19.837,0,0,0,7.2,5.977,7.861,7.861,0,0,0,2.76.8Z" transform="translate(0 0)"/>
</svg>
