<svg id="youtube-line" xmlns="http://www.w3.org/2000/svg" width="32" height="32" viewBox="0 0 32 32">
  <path id="Path_10" data-name="Path 10" d="M0,0H32V32H0Z" fill="none"/>
  <path id="Path_11" data-name="Path 11" d="M25.851,8.154a1.117,1.117,0,0,0-.73-.821c-.592-.171-3.478-.559-9.574-.559s-8.979.388-9.577.559a1.119,1.119,0,0,0-.727.821,35.414,35.414,0,0,0-.534,6.941,35.462,35.462,0,0,0,.534,6.942,1.113,1.113,0,0,0,.729.818c.6.172,3.479.56,9.575.56s8.981-.388,9.577-.559a1.119,1.119,0,0,0,.727-.821,35.469,35.469,0,0,0,.534-6.941A35.482,35.482,0,0,0,25.851,8.154Zm2.624-.689a44.072,44.072,0,0,1,.619,7.63,44.071,44.071,0,0,1-.619,7.63,3.859,3.859,0,0,1-2.625,2.8c-2.315.66-10.3.66-10.3.66s-7.983,0-10.3-.66a3.859,3.859,0,0,1-2.625-2.8A44.072,44.072,0,0,1,2,15.095a44.072,44.072,0,0,1,.619-7.63,3.859,3.859,0,0,1,2.625-2.8C7.564,4,15.547,4,15.547,4s7.988,0,10.3.66a3.859,3.859,0,0,1,2.625,2.8ZM12.838,19.949V10.241l8.128,4.854Z" transform="translate(0.453 0.905)"/>
</svg>
